<?xml version="1.0" encoding="iso-8859-1"?>
<!-- Generator: Adobe Illustrator 19.0.0, SVG Export Plug-In . SVG Version: 6.00 Build 0)  -->
<svg version="1.1" id="Capa_1" xmlns="http://www.w3.org/2000/svg" xmlns:xlink="http://www.w3.org/1999/xlink" x="0px" y="0px"
	 viewBox="0 0 512 512" style="enable-background:new 0 0 512 512;" xml:space="preserve">
<g>
	<g>
		<path d="M194.784,56.428c-77.067,0-139.768,62.7-139.768,139.768s62.7,139.767,139.768,139.767s139.768-62.7,139.768-139.768
			C334.551,119.128,271.851,56.428,194.784,56.428z M194.784,305.996c-60.544,0-109.801-49.257-109.801-109.801
			c0-60.544,49.257-109.8,109.801-109.8c60.544,0,109.801,49.257,109.801,109.801S255.327,305.996,194.784,305.996z"/>
	</g>
</g>
<g>
	<g>
		<path d="M356.475,304.386c20.888-31.028,33.092-68.363,33.092-108.497c0-107.404-87.38-194.784-194.784-194.784
			S0,88.485,0,195.888s87.38,194.784,194.784,194.784c40.926,0,78.935-12.698,110.319-34.345l155.242,154.568L512,459.24
			L356.475,304.386z M194.784,360.705c-90.88,0-164.817-73.937-164.817-164.817S103.904,31.071,194.784,31.071
			S359.6,105.008,359.6,195.888S285.664,360.705,194.784,360.705z M460.298,468.561l-131.77-131.2
			c3.177-3.006,6.25-6.12,9.221-9.332l131.826,131.256L460.298,468.561z"/>
	</g>
</g>
<g>
</g>
<g>
</g>
<g>
</g>
<g>
</g>
<g>
</g>
<g>
</g>
<g>
</g>
<g>
</g>
<g>
</g>
<g>
</g>
<g>
</g>
<g>
</g>
<g>
</g>
<g>
</g>
<g>
</g>
</svg>
